<?xml version="1.0" standalone="no"?>
<!DOCTYPE svg PUBLIC "-//W3C//DTD SVG 1.1//EN" "http://www.w3.org/Graphics/SVG/1.1/DTD/svg11.dtd" >
<svg xmlns="http://www.w3.org/2000/svg">
<metadata></metadata>
<defs>
<font id="soin_sans_neueroman" horiz-adv-x="1122" >
<font-face units-per-em="2048" ascent="1536" descent="-512" />
<missing-glyph horiz-adv-x="489" />
<glyph horiz-adv-x="0" />
<glyph horiz-adv-x="682" />
<glyph horiz-adv-x="0" />
<glyph horiz-adv-x="0" />
<glyph unicode="&#xd;" horiz-adv-x="1024" />
<glyph unicode=" "  horiz-adv-x="489" />
<glyph unicode="&#x09;" horiz-adv-x="489" />
<glyph unicode="&#xa0;" horiz-adv-x="489" />
<glyph unicode="!" horiz-adv-x="575" d="M174 102q0 48 32 80.5t81 32.5q50 0 81 -32.5t31 -80.5q0 -50 -30.5 -81t-81.5 -31q-50 0 -81.5 31.5t-31.5 80.5zM203 1311v123h168v-123q0 -433 -31 -895h-104q-33 442 -33 895z" />
<glyph unicode="&#x22;" horiz-adv-x="880" d="M182 1454h160l-16 -588h-127zM539 1454h159l-16 -588h-127z" />
<glyph unicode="#" horiz-adv-x="1439" d="M111 375v131h235l78 422h-231v131h256l69 375h144l-70 -375h381l69 375h144l-70 -375h213v-131h-237l-78 -422h233v-131h-258l-69 -375h-144l70 375h-381l-70 -375h-143l70 375h-211zM489 506h381l78 422h-381z" />
<glyph unicode="$" horiz-adv-x="1331" d="M119 350h151q15 -105 100.5 -163.5t235.5 -67.5v547l-71 16q-388 92 -388 383q0 177 119.5 276.5t339.5 108.5v188h135v-192q179 -17 282 -103.5t124 -230.5h-148q-14 84 -79.5 135t-178.5 64v-527l117 -28q169 -40 252.5 -130t83.5 -237q0 -184 -122 -287.5t-331 -117.5 v-189h-135v189q-214 12 -340.5 105.5t-146.5 260.5zM301 1069q0 -98 74.5 -157.5t212.5 -90.5l18 -4v498q-305 -12 -305 -246zM741 119q142 14 220.5 81t78.5 181q0 87 -60 148t-175 89l-64 15v-514z" />
<glyph unicode="%" horiz-adv-x="1984" d="M104 1077q0 156 105.5 262.5t261.5 106.5t260.5 -106.5t104.5 -262.5q0 -157 -104.5 -263.5t-260.5 -106.5t-261.5 106.5t-105.5 263.5zM246 1077q0 -105 63 -173t162 -68q98 0 161.5 68.5t63.5 172.5q0 103 -63.5 171.5t-161.5 68.5q-99 0 -162 -68t-63 -172zM463 0 l899 1434h160l-899 -1434h-160zM1149 356q0 157 104 264t260 107t261.5 -107t105.5 -264q0 -156 -105.5 -262t-261.5 -106t-260 106t-104 262zM1288 356q0 -103 63.5 -171t161.5 -68q99 0 162.5 68t63.5 171q0 105 -63.5 173.5t-162.5 68.5q-98 0 -161.5 -68.5t-63.5 -173.5 z" />
<glyph unicode="&#x26;" horiz-adv-x="1427" d="M123 362q0 46 10 89t23.5 76.5t41 69.5t49 59.5t61 56.5t63.5 51t69 51q3 2 4 3t3 2.5t4 2.5l24 17q-36 40 -58.5 68t-49.5 69.5t-40.5 85t-13.5 88.5q0 138 84 219.5t226 81.5q132 0 217.5 -75.5t85.5 -209.5q0 -57 -18 -105.5t-54 -90t-70.5 -70.5t-87.5 -67l-18 -13 l338 -397q65 72 241 293l105 -88q-160 -200 -258 -307l274 -322h-184l-186 219q-122 -121 -236 -180t-244 -59q-170 0 -287.5 103t-117.5 279zM279 367q0 -113 72 -180.5t179 -67.5q98 0 191.5 49.5t198.5 153.5l-357 415l-33 -22q-42 -31 -62 -45.5t-52.5 -41.5t-48 -44 t-36 -44t-29.5 -51t-16 -55.5t-7 -66.5zM459 1159q0 -31 9.5 -60.5t34.5 -65t38.5 -52t50.5 -59.5l18 12q51 36 82 64t58.5 73.5t27.5 93.5q0 71 -42.5 117.5t-112.5 46.5q-78 0 -121 -44t-43 -126z" />
<glyph unicode="'" horiz-adv-x="526" d="M182 1454h160l-16 -588h-127z" />
<glyph unicode="(" horiz-adv-x="868" d="M162 582q0 232 73.5 431t217 339t335.5 188v-141q-220 -66 -343 -283t-123 -534t123 -535t343 -285v-139q-192 48 -335.5 188t-217 339.5t-73.5 431.5z" />
<glyph unicode=")" horiz-adv-x="868" d="M82 -238q219 67 342 285.5t123 534.5t-123 533.5t-342 283.5v141q191 -48 334 -188t217 -339t74 -431t-74 -431.5t-217 -339.5t-334 -188v139z" />
<glyph unicode="*" horiz-adv-x="915" d="M100 1147l43 127l260 -98l-12 278h133l-12 -278l260 98l41 -127l-268 -72l172 -219l-109 -74l-151 234l-152 -234l-108 74l172 219z" />
<glyph unicode="+" horiz-adv-x="1249" d="M223 434v133h332v334h139v-334h332v-133h-332v-336h-139v336h-332z" />
<glyph unicode="," horiz-adv-x="477" d="M78 -266l84 502h182l-139 -502h-127z" />
<glyph unicode="-" horiz-adv-x="802" d="M98 383v127h609v-127h-609z" />
<glyph unicode="." horiz-adv-x="497" d="M135 102q0 48 32 80.5t81 32.5q50 0 81 -32.5t31 -80.5q0 -50 -30.5 -81t-81.5 -31q-50 0 -81.5 31.5t-31.5 80.5z" />
<glyph unicode="/" horiz-adv-x="1054" d="M0 -205l899 1843h156l-899 -1843h-156z" />
<glyph unicode="0" horiz-adv-x="1437" d="M135 717q0 343 158 540t426 197t426 -197t158 -540t-158 -540t-426 -197t-426 197t-158 540zM295 717q0 -283 113.5 -440.5t310.5 -157.5t310.5 157.5t113.5 440.5t-113.5 440.5t-310.5 157.5t-310.5 -157.5t-113.5 -440.5z" />
<glyph unicode="1" horiz-adv-x="1019" d="M102 1303l422 141h131v-1444h-153v1288l-355 -104z" />
<glyph unicode="2" horiz-adv-x="1282" d="M125 1010q12 204 142 324t366 120q225 0 355 -118t130 -308q0 -66 -17 -127t-43 -109t-73.5 -102.5t-91 -95.5t-113.5 -102l-401 -353h770v-139h-1012v113l518 458q83 73 133 122.5t93 106t61.5 111.5t18.5 117q0 131 -87.5 209t-242.5 78q-167 0 -255 -78.5t-97 -226.5 h-154z" />
<glyph unicode="3" horiz-adv-x="1259" d="M98 393h154q11 -134 102.5 -206t268.5 -72q169 0 266.5 78t97.5 221q0 138 -84 203t-237 65h-156v129h137q297 0 297 260q0 117 -91.5 182.5t-231.5 65.5q-162 0 -252 -75.5t-99 -207.5h-153q12 192 143 305t363 113q131 0 238 -41.5t174 -128t67 -205.5 q0 -131 -56.5 -211.5t-152.5 -109.5q112 -23 182 -114t70 -232q0 -196 -146.5 -314t-373.5 -118q-245 0 -378 110.5t-149 302.5z" />
<glyph unicode="4" horiz-adv-x="1359" d="M86 356v123l819 959h142v-949h233v-133h-233v-356h-152v356h-809zM264 489h631v736z" />
<glyph unicode="5" horiz-adv-x="1245" d="M94 393h150q11 -123 108.5 -200.5t259.5 -77.5q159 0 263 95t104 241q0 138 -97.5 227.5t-271.5 89.5q-97 0 -182.5 -23.5t-132.5 -60.5l-143 51l32 699h856v-140h-716l-23 -475q49 33 141.5 56.5t186.5 23.5q235 0 371.5 -124t136.5 -320q0 -210 -150.5 -342.5 t-372.5 -132.5q-236 0 -372 113.5t-148 299.5z" />
<glyph unicode="6" horiz-adv-x="1306" d="M135 664q0 122 17 231.5t59 213.5t105.5 179t164 120.5t228.5 45.5q184 0 306 -92t146 -234h-151q-17 90 -99 140.5t-202 50.5q-96 0 -170 -37t-119 -94.5t-75 -140t-41.5 -162t-14.5 -170.5q59 100 169.5 161.5t246.5 61.5q215 0 358 -136.5t143 -334.5 q0 -217 -142.5 -352t-369.5 -135q-93 0 -174.5 24t-153 77t-122.5 131.5t-80 194t-29 257.5zM315 467q0 -151 109 -250.5t266 -99.5q165 0 262 96t97 254q0 147 -98.5 243.5t-260.5 96.5q-156 0 -265.5 -99t-109.5 -241z" />
<glyph unicode="7" horiz-adv-x="1251" d="M125 1294v140h993v-117l-669 -1317h-162l659 1294h-821z" />
<glyph unicode="8" horiz-adv-x="1335" d="M119 381q0 125 75 219t214 133q-118 38 -182 129.5t-64 202.5q0 175 139 282t367 107q230 0 369 -107t139 -282q0 -112 -64.5 -203t-183.5 -129q139 -39 215 -133t76 -219q0 -187 -151.5 -294t-399.5 -107q-247 0 -398 107t-151 294zM274 383q0 -128 106 -198t288 -70 t287.5 70t105.5 198q0 126 -106.5 202.5t-286.5 76.5t-287 -77t-107 -202zM315 1057q0 -114 95.5 -190t257.5 -76t257 76t95 190q0 128 -97 196t-255 68t-255.5 -68t-97.5 -196z" />
<glyph unicode="9" horiz-adv-x="1306" d="M102 967q0 217 141.5 352t368.5 135q93 0 175 -24t153.5 -77t123 -131.5t81 -194t29.5 -257.5q0 -122 -17 -231.5t-59.5 -213.5t-106.5 -179t-164.5 -120.5t-228.5 -45.5q-183 0 -305 91.5t-146 233.5h152q17 -88 98 -139t201 -51q96 0 171 37t120 95t75 140t41.5 162 t14.5 172q-57 -101 -168.5 -163t-247.5 -62q-215 0 -358.5 136.5t-143.5 334.5zM260 967q0 -148 97.5 -244t258.5 -96q157 0 267 99t110 241q0 151 -109.5 250.5t-267.5 99.5q-164 0 -260 -96t-96 -254z" />
<glyph unicode=":" horiz-adv-x="497" d="M135 102q0 48 32 80.5t81 32.5q50 0 81 -32.5t31 -80.5q0 -50 -30.5 -81t-81.5 -31q-50 0 -81.5 31.5t-31.5 80.5zM135 788q0 48 32 80.5t81 32.5q50 0 81 -32.5t31 -80.5q0 -50 -30.5 -81t-81.5 -31q-50 0 -81.5 31.5t-31.5 80.5z" />
<glyph unicode=";" horiz-adv-x="497" d="M78 -266l84 502h182l-139 -502h-127zM135 788q0 48 32 80.5t81 32.5q50 0 81 -32.5t31 -80.5q0 -50 -30.5 -81t-81.5 -31q-50 0 -81.5 31.5t-31.5 80.5z" />
<glyph unicode="&#x3c;" horiz-adv-x="1249" d="M217 436v127l811 406v-168l-643 -301l643 -301v-168z" />
<glyph unicode="=" horiz-adv-x="1249" d="M233 240v135h783v-135h-783zM233 627v133h783v-133h-783z" />
<glyph unicode="&#x3e;" horiz-adv-x="1249" d="M221 31v168l643 301l-643 301v168l811 -406v-127z" />
<glyph unicode="?" horiz-adv-x="1210" d="M74 1010q13 206 142 325t376 119q238 0 366.5 -112t128.5 -298q0 -65 -27 -126.5t-63.5 -105.5t-93 -88.5t-97 -69.5t-93.5 -54l-19 -184h-119l-20 246q157 79 220 124q155 111 155 250q0 131 -86 205t-256 74q-347 0 -367 -305h-147zM520 102q0 48 32 80.5t81 32.5 q50 0 81 -32.5t31 -80.5q0 -50 -30.5 -81t-81.5 -31q-50 0 -81.5 31.5t-31.5 80.5z" />
<glyph unicode="@" horiz-adv-x="2004" d="M150 479q0 179 64 335t176.5 267.5t274.5 175.5t351 64q183 0 339 -58t266 -160.5t172 -250.5t62 -322q0 -210 -89 -329t-248 -119q-172 0 -220 166q-53 -80 -133.5 -127t-179.5 -47q-168 0 -283.5 119.5t-115.5 293.5t115.5 294t283.5 120q172 0 287 -139v127h131v-473 q0 -117 30 -169t99 -52q87 0 138.5 86.5t51.5 248.5q0 205 -90 359t-250 235.5t-366 81.5q-161 0 -297.5 -54t-232 -149.5t-149.5 -230.5t-54 -293q0 -149 53.5 -279t148 -223t229 -146.5t290.5 -53.5q212 0 399 80v-115q-171 -80 -399 -80q-185 0 -345 63.5t-271 173 t-174.5 260t-63.5 320.5zM721 487q0 -129 76.5 -213t199.5 -84q114 0 194.5 85.5t80.5 211.5t-80.5 211.5t-194.5 85.5q-123 0 -199.5 -84t-76.5 -213z" />
<glyph unicode="A" horiz-adv-x="1531" d="M68 0l639 1442h120l637 -1442h-155l-174 395h-742l-172 -395h-153zM455 535h620l-311 708z" />
<glyph unicode="B" horiz-adv-x="1458" d="M207 0v1434h612q217 0 343 -96.5t126 -276.5q0 -133 -64 -217.5t-169 -108.5q128 -15 206 -109t78 -233q0 -194 -131.5 -293.5t-371.5 -99.5h-629zM356 137h478q175 0 262.5 63t87.5 199q0 138 -87 196t-274 58h-467v-516zM356 793h439q163 0 250.5 59.5t87.5 198.5 q0 129 -81 186t-245 57h-451v-501z" />
<glyph unicode="C" horiz-adv-x="1660" d="M135 717q0 204 96 372.5t267 266.5t381 98q253 0 436 -135t229 -354h-162q-32 151 -167.5 248.5t-335.5 97.5q-255 0 -419.5 -168t-164.5 -426t164.5 -426t419.5 -168q202 0 338.5 98t168.5 250h162q-46 -220 -230 -355.5t-439 -135.5q-210 0 -381 98t-267 266.5 t-96 372.5z" />
<glyph unicode="D" horiz-adv-x="1579" d="M207 0v1434h483q167 0 308.5 -53.5t239.5 -147.5t153 -226t55 -286q0 -208 -94 -371.5t-267.5 -256.5t-398.5 -93h-479zM358 143h328q284 0 441 158.5t157 419.5q0 169 -68 296.5t-203 200t-323 72.5h-332v-1147z" />
<glyph unicode="E" horiz-adv-x="1349" d="M207 0v1434h989v-140h-838v-501h789v-140h-789v-514h846v-139h-997z" />
<glyph unicode="F" horiz-adv-x="1298" d="M207 0v1434h969v-140h-818v-534h756v-139h-756v-621h-151z" />
<glyph unicode="G" horiz-adv-x="1695" d="M135 717q0 202 95.5 370.5t266.5 267.5t382 99q246 0 426.5 -132.5t224.5 -342.5h-160q-30 141 -165 236.5t-326 95.5q-127 0 -236 -45.5t-185.5 -124.5t-119.5 -189t-43 -235q0 -259 160 -426.5t417 -167.5q119 0 219.5 39.5t169 107.5t108.5 160.5t44 198.5h-526v139 h678q4 -35 4 -84q0 -208 -88.5 -368.5t-247 -248t-361.5 -87.5q-159 0 -297 57.5t-234 156t-151 234.5t-55 289z" />
<glyph unicode="H" horiz-adv-x="1591" d="M207 0v1434h151v-639h875v639h151v-1434h-151v651h-875v-651h-151z" />
<glyph unicode="I" horiz-adv-x="589" d="M219 0v1434h152v-1434h-152z" />
<glyph unicode="J" horiz-adv-x="1206" d="M78 344h147q37 -221 314 -221q155 0 241 99t86 298v914h152v-936q0 -250 -129.5 -384t-345.5 -134q-207 0 -325.5 95.5t-139.5 268.5z" />
<glyph unicode="K" horiz-adv-x="1441" d="M207 0v1434h151v-836l807 836h201l-633 -648l666 -786h-189l-575 684l-277 -285v-399h-151z" />
<glyph unicode="L" horiz-adv-x="1236" d="M207 0v1434h151v-1291h813v-143h-964z" />
<glyph unicode="M" horiz-adv-x="1904" d="M207 0v1438h149l596 -998l598 998h148v-1438h-154v1159l-538 -889h-111l-539 889v-1159h-149z" />
<glyph unicode="N" horiz-adv-x="1615" d="M207 0v1438h137l916 -1198v1194h149v-1438h-137l-916 1198v-1194h-149z" />
<glyph unicode="O" horiz-adv-x="1744" d="M135 717q0 152 57.5 288.5t156 235t235 156t288.5 57.5t288.5 -57.5t235 -156t156.5 -235t58 -288.5t-58 -288.5t-156.5 -235t-235 -156t-288.5 -57.5t-288.5 57.5t-235 156t-156 235t-57.5 288.5zM295 717q0 -168 76 -304.5t208 -213t293 -76.5t293.5 76.5t208.5 213 t76 304.5t-76 304.5t-208.5 213t-293.5 76.5t-293 -76.5t-208 -213t-76 -304.5z" />
<glyph unicode="P" horiz-adv-x="1409" d="M207 0v1434h598q239 0 368.5 -116.5t129.5 -324.5q0 -206 -136 -329t-372 -123h-437v-541h-151zM358 680h422q181 0 274 77t93 228q0 307 -367 307h-422v-612z" />
<glyph unicode="Q" horiz-adv-x="1744" d="M135 727q0 147 57.5 281.5t156 232t235 155.5t288.5 58t289 -58t235 -155.5t156 -232t58 -281.5q0 -184 -87 -336.5t-241 -251.5h328v-139h-738q-152 0 -288.5 58t-235 155.5t-156 232t-57.5 281.5zM295 727q0 -122 44.5 -230.5t121.5 -186t184 -122.5t227 -45t227.5 45 t184 122.5t121.5 186t45 230.5t-45 230.5t-121.5 186t-184 122.5t-227.5 45t-227 -45t-184 -122.5t-121.5 -186t-44.5 -230.5z" />
<glyph unicode="R" horiz-adv-x="1458" d="M207 0v1434h629q236 0 365.5 -117t129.5 -324q0 -184 -111.5 -303.5t-306.5 -144.5l430 -545h-176l-424 541h-385v-541h-151zM358 680h453q178 0 271.5 78.5t93.5 228.5q0 305 -365 305h-453v-612z" />
<glyph unicode="S" horiz-adv-x="1298" d="M106 350h152q17 -111 120.5 -171t272.5 -60q163 0 262 70t99 192q0 183 -262 244l-205 49q-202 47 -303 140.5t-101 250.5q0 180 132.5 283.5t355.5 103.5q209 0 338 -91.5t151 -248.5h-147q-17 96 -107 149.5t-237 53.5q-155 0 -242.5 -62.5t-87.5 -183.5 q0 -100 74 -160t231 -96l203 -49q191 -45 275.5 -135t84.5 -240q0 -192 -143 -299.5t-369 -107.5q-231 0 -379 97.5t-168 270.5z" />
<glyph unicode="T" horiz-adv-x="1261" d="M66 1294v140h1130v-140h-489v-1294h-152v1294h-489z" />
<glyph unicode="U" horiz-adv-x="1574" d="M195 575v859h153v-834q0 -234 118.5 -355.5t324.5 -121.5q205 0 322.5 121.5t117.5 355.5v834h149v-859q0 -143 -44.5 -257t-124 -187.5t-187.5 -112t-236 -38.5q-129 0 -237 38.5t-187.5 112t-124 187t-44.5 257.5z" />
<glyph unicode="V" horiz-adv-x="1490" d="M68 1434h161l519 -1252l520 1252h155l-608 -1442h-139z" />
<glyph unicode="W" horiz-adv-x="2269" d="M88 1434h162l403 -1203l420 1203h127l412 -1203l413 1203h156l-504 -1442h-127l-415 1171l-414 -1171h-129z" />
<glyph unicode="X" horiz-adv-x="1495" d="M96 0l555 725l-538 709h176l459 -609l462 609h172l-540 -705l557 -729h-176l-475 629l-480 -629h-172z" />
<glyph unicode="Y" horiz-adv-x="1372" d="M29 1434h172l483 -732l487 732h172l-581 -873v-561h-152v561z" />
<glyph unicode="Z" horiz-adv-x="1400" d="M145 0v113l899 1181h-886v140h1083v-113l-897 -1182h909v-139h-1108z" />
<glyph unicode="[" horiz-adv-x="784" d="M215 -358v1878h487v-131h-335v-1616h335v-131h-487z" />
<glyph unicode="\" horiz-adv-x="1054" d="M0 1638h156l899 -1843h-156z" />
<glyph unicode="]" horiz-adv-x="784" d="M82 -227h334v1616h-334v131h487v-1878h-487v131z" />
<glyph unicode="^" horiz-adv-x="1236" d="M121 717l424 717h147l424 -717h-170l-328 557l-325 -557h-172z" />
<glyph unicode="_" horiz-adv-x="868" d="M0 -123h868v-125h-868v125z" />
<glyph unicode="`" horiz-adv-x="1024" d="M225 1294l107 117l284 -289l-71 -69z" />
<glyph unicode="a" horiz-adv-x="1171" d="M98 444q0 196 128.5 329.5t320.5 133.5q198 0 325 -157v139h140v-889h-140v139q-60 -72 -143 -113.5t-182 -41.5q-194 0 -321.5 132t-127.5 328zM246 444q0 -146 86.5 -240.5t224.5 -94.5q129 0 220 96t91 239q0 144 -91 240t-220 96q-139 0 -225 -94.5t-86 -241.5z" />
<glyph unicode="b" horiz-adv-x="1171" d="M158 0v1434h143v-680q59 72 141.5 112.5t180.5 40.5q193 0 321.5 -133.5t128.5 -329.5t-128.5 -328t-321.5 -132q-196 0 -324 155v-139h-141zM301 444q0 -143 91.5 -239t221.5 -96q138 0 225 94.5t87 240.5q0 147 -86.5 241.5t-225.5 94.5q-131 0 -222 -96t-91 -240z" />
<glyph unicode="c" horiz-adv-x="1056" d="M98 444q0 194 133 328.5t326 134.5q180 0 294 -93.5t128 -227.5h-148q-18 83 -88.5 137.5t-181.5 54.5q-139 0 -227 -93.5t-88 -240.5q0 -145 88.5 -238t228.5 -93q113 0 183 54.5t88 139.5h147q-14 -135 -127.5 -229t-294.5 -94q-195 0 -328 133t-133 327z" />
<glyph unicode="d" horiz-adv-x="1171" d="M98 444q0 196 128.5 329.5t320.5 133.5q97 0 179.5 -40.5t141.5 -110.5v678h144v-1434h-140v139q-60 -72 -143 -113.5t-182 -41.5q-193 0 -321 132t-128 328zM246 444q0 -146 86.5 -240.5t224.5 -94.5q129 0 220 96t91 239q0 144 -91 240t-220 96q-139 0 -225 -94.5 t-86 -241.5z" />
<glyph unicode="e" horiz-adv-x="1056" d="M98 444q0 206 121 334.5t316 128.5q198 0 314 -131.5t116 -331.5q0 -28 -2 -57h-721q15 -138 97 -210.5t208 -72.5q104 0 175.5 44t86.5 114h135q-25 -121 -135.5 -199.5t-265.5 -78.5q-196 0 -320.5 127.5t-124.5 332.5zM242 504h577q-13 136 -89.5 208t-197.5 72 q-120 0 -197.5 -72.5t-92.5 -207.5z" />
<glyph unicode="f" horiz-adv-x="729" d="M72 764v125h168v172q0 194 77 289.5t240 95.5q75 0 137 -16v-123q-55 8 -114 8q-113 0 -155 -63t-42 -214v-149h299v-125h-299v-764h-143v764h-168z" />
<glyph unicode="g" horiz-adv-x="1175" d="M98 449q0 123 57 228t161 167.5t233 62.5q196 0 325 -153v135h142v-889q0 -204 -125.5 -321t-331.5 -117q-189 0 -305 87t-129 216h143q14 -78 89.5 -128t197.5 -50q154 0 236.5 86.5t82.5 251.5v120q-129 -153 -325 -153q-129 0 -233 62.5t-161 167t-57 227.5zM244 449 q0 -139 87 -234.5t228 -95.5q131 0 222 97t91 233q0 137 -91 234t-222 97q-141 0 -228 -95.5t-87 -235.5z" />
<glyph unicode="h" horiz-adv-x="1126" d="M158 0v1434h143v-686q45 76 126.5 117.5t182.5 41.5q166 0 268.5 -100.5t102.5 -265.5v-541h-143v496q0 133 -66.5 206.5t-193.5 73.5q-123 0 -200 -77t-77 -207v-492h-143z" />
<glyph unicode="i" horiz-adv-x="466" d="M137 1184q0 43 26.5 69.5t69.5 26.5q44 0 70.5 -26.5t26.5 -69.5q0 -42 -26.5 -69.5t-70.5 -27.5q-42 0 -69 27.5t-27 69.5zM162 0v889h143v-889h-143z" />
<glyph unicode="j" horiz-adv-x="475" d="M-61 -317q58 -7 81 -7q81 0 115.5 48t34.5 151v1014h143v-1034q0 -152 -67 -231t-197 -79q-43 0 -110 13v125zM145 1184q0 43 27 69.5t70 26.5q44 0 70 -26.5t26 -69.5q0 -42 -26.5 -69.5t-69.5 -27.5q-42 0 -69.5 27.5t-27.5 69.5z" />
<glyph unicode="k" horiz-adv-x="997" d="M158 0v1434h143v-963l457 418h188l-403 -365l411 -524h-170l-340 436l-143 -129v-307h-143z" />
<glyph unicode="l" horiz-adv-x="466" d="M162 0v1434h143v-1434h-143z" />
<glyph unicode="m" horiz-adv-x="1771" d="M158 0v889h141v-135q46 70 128 111.5t175 41.5q106 0 189.5 -47t128.5 -129q46 80 142 128t202 48q162 0 262 -100t100 -262v-545h-143v500q0 129 -66 202.5t-186 73.5q-117 0 -191.5 -75.5t-74.5 -204.5v-496h-144v500q0 129 -66 202.5t-186 73.5q-117 0 -192.5 -75.5 t-75.5 -204.5v-496h-143z" />
<glyph unicode="n" horiz-adv-x="1126" d="M158 0v889h141v-144q45 78 127 120t184 42q166 0 268.5 -100.5t102.5 -265.5v-541h-143v496q0 133 -66.5 206.5t-193.5 73.5q-123 0 -200 -77t-77 -207v-492h-143z" />
<glyph unicode="o" d="M98 444q0 194 135 328.5t328 134.5t328 -134.5t135 -328.5q0 -193 -134.5 -326.5t-328.5 -133.5t-328.5 133.5t-134.5 326.5zM246 444q0 -144 90.5 -238.5t224.5 -94.5t225 94.5t91 238.5q0 145 -91 240.5t-225 95.5t-224.5 -95.5t-90.5 -240.5z" />
<glyph unicode="p" horiz-adv-x="1171" d="M158 -442v1331h141v-139q127 157 324 157q193 0 321.5 -133.5t128.5 -329.5t-128.5 -328t-321.5 -132q-98 0 -180.5 40.5t-141.5 112.5v-579h-143zM301 444q0 -143 91.5 -239t221.5 -96q138 0 225 94.5t87 240.5q0 147 -86.5 241.5t-225.5 94.5q-131 0 -222 -96t-91 -240 z" />
<glyph unicode="q" horiz-adv-x="1171" d="M98 444q0 196 128.5 329.5t320.5 133.5q198 0 325 -157v139h140v-1331h-144v577q-59 -70 -141.5 -110.5t-179.5 -40.5q-193 0 -321 132t-128 328zM246 444q0 -146 86.5 -240.5t224.5 -94.5q129 0 220 96t91 239q0 144 -91 240t-220 96q-139 0 -225 -94.5t-86 -241.5z" />
<glyph unicode="r" horiz-adv-x="729" d="M158 0v889h141v-162q46 80 123.5 125t181.5 45q38 0 70 -8v-129q-27 6 -72 6q-153 0 -227 -86t-74 -238v-442h-143z" />
<glyph unicode="s" horiz-adv-x="847" d="M66 238h133q9 -62 72 -99t161 -37q93 0 150 38t57 102q0 58 -39.5 87.5t-140.5 51.5l-99 20q-133 30 -198.5 89t-65.5 159q0 114 90 185t230 71q154 0 240.5 -70t97.5 -173h-133q-8 56 -61 90t-144 34q-80 0 -133.5 -36t-53.5 -95q0 -60 40.5 -86.5t133.5 -48.5l101 -22 q133 -29 200.5 -89t67.5 -163q0 -118 -95 -189t-253 -71q-163 0 -253 71.5t-105 180.5z" />
<glyph unicode="t" horiz-adv-x="796" d="M66 764v125h170v274h141v-274h334v-125h-334v-463q0 -105 43 -143.5t139 -38.5q83 0 156 26v-125q-73 -32 -178 -32q-148 0 -226 68t-78 225v483h-167z" />
<glyph unicode="u" d="M145 348v541h144v-496q0 -132 66 -205t192 -73q122 0 198 76.5t76 207.5v490h144v-889h-142v145q-45 -78 -127 -119.5t-182 -41.5q-165 0 -267 99.5t-102 264.5z" />
<glyph unicode="v" horiz-adv-x="989" d="M49 889h154l293 -699l297 699h149l-391 -893h-113z" />
<glyph unicode="w" horiz-adv-x="1540" d="M61 889h152l244 -686l258 686h123l245 -688l254 688h142l-338 -893h-111l-258 684l-262 -684h-111z" />
<glyph unicode="x" horiz-adv-x="993" d="M53 0l363 446l-357 443h168l271 -342l272 342h166l-358 -440l364 -449h-170l-276 348l-279 -348h-164z" />
<glyph unicode="y" horiz-adv-x="1017" d="M45 889h154l319 -651l303 651h152l-637 -1331h-152l260 536z" />
<glyph unicode="z" horiz-adv-x="978" d="M109 0v98l571 670h-553v121h743v-98l-571 -668h575v-123h-765z" />
<glyph unicode="{" horiz-adv-x="901" d="M133 508v147q113 0 182.5 71t59.5 189l-15 197q-22 408 392 408h69v-131h-69q-132 0 -188.5 -61.5t-51.5 -199.5l12 -196q8 -130 -45.5 -222.5t-159.5 -127.5q106 -35 159.5 -128t45.5 -223l-12 -196q-5 -138 51.5 -199t188.5 -61h69v-131h-69q-212 0 -307.5 102.5 t-84.5 304.5l15 197q10 118 -59.5 189t-182.5 71z" />
<glyph unicode="|" horiz-adv-x="710" d="M285 -336v1770h143v-1770h-143z" />
<glyph unicode="}" horiz-adv-x="901" d="M82 -225h68q133 0 188.5 60.5t50.5 199.5l-10 196q-9 130 44 223t159 128q-106 35 -159 127.5t-44 222.5l10 196q5 139 -50.5 200t-188.5 61h-68v131h70q413 0 391 -408l-17 -197q-10 -118 59.5 -189t182.5 -71v-147q-113 0 -182.5 -71t-59.5 -189l17 -197 q22 -407 -391 -407h-70v131z" />
<glyph unicode="~" horiz-adv-x="1028" d="M141 350q18 89 71.5 146t135.5 57q64 0 180 -49q10 -4 33.5 -14.5t37.5 -16t36 -11t41 -5.5q86 0 115 100l96 -12q-18 -89 -71.5 -146t-135.5 -57q-64 0 -180 49q-10 4 -33.5 14.5t-37.5 16t-36 11t-41 5.5q-85 0 -114 -100z" />
<glyph unicode="&#xa1;" horiz-adv-x="575" d="M174 788q0 48 32 79.5t81 31.5q50 0 81 -31.5t31 -79.5q0 -50 -30.5 -81t-81.5 -31q-50 0 -81.5 31.5t-31.5 80.5zM203 -422q0 451 33 897h104q31 -465 31 -897v-123h-168v123z" />
<glyph unicode="&#xa2;" horiz-adv-x="1331" d="M227 444q0 177 115.5 306.5t288.5 152.5v191h135v-191q150 -20 245 -109.5t107 -207.5h-147q-16 69 -69 119.5t-136 64.5v-651q84 14 137.5 65.5t69.5 122.5h147q-13 -120 -107.5 -210.5t-246.5 -108.5v-193h-135v193q-173 22 -288.5 150.5t-115.5 305.5zM377 444 q0 -127 69.5 -215t184.5 -110v653q-114 -22 -184 -111.5t-70 -216.5z" />
<glyph unicode="&#xa3;" horiz-adv-x="1331" d="M102 0v139h164v498h-164v131h164v125q0 118 32 218.5t93.5 177.5t160.5 121t224 44q107 0 192 -32t140 -88.5t86 -128t37 -154.5h-150q-8 114 -85 189t-218 75q-358 0 -358 -430v-117h463v-131h-463v-498h805v-139h-1123z" />
<glyph unicode="&#xa4;" horiz-adv-x="1331" d="M195 348l118 119q-77 110 -77 250q0 138 77 248l-118 120l100 101l119 -121q118 80 252 80q135 0 249 -80l121 121l101 -101l-121 -120q80 -110 80 -248q0 -140 -80 -250l121 -119l-101 -100l-121 119q-111 -78 -249 -78q-137 0 -252 78l-119 -119zM373 717 q0 -133 84 -221t209 -88t208.5 88t83.5 221t-83.5 221t-208.5 88t-209 -88t-84 -221z" />
<glyph unicode="&#xa5;" horiz-adv-x="1331" d="M37 1434h164l465 -777l464 777h166l-411 -674h264v-127h-340l-68 -111v-76h408v-124h-408v-322h-151v322h-406v124h406v76l-68 111h-338v127h260z" />
<glyph unicode="&#xa6;" horiz-adv-x="710" d="M285 330h143v-666h-143v666zM285 768v666h143v-666h-143z" />
<glyph unicode="&#xa7;" horiz-adv-x="1331" d="M172 -27h147q12 -92 98.5 -140t235.5 -48q141 0 225.5 55t84.5 152q0 73 -54.5 118.5t-160.5 71.5l-209 56q-164 42 -253 117.5t-89 205.5q0 101 61 175.5t172 109.5q-203 86 -203 278q0 156 117 243t322 87q200 0 311.5 -79.5t130.5 -221.5h-145q-14 81 -90 125.5 t-209 44.5q-137 0 -212 -49.5t-75 -143.5q0 -82 58.5 -126.5t172.5 -71.5l211 -51q314 -76 314 -320q0 -106 -58 -177.5t-166 -104.5q203 -83 203 -281q0 -165 -123.5 -253.5t-333.5 -88.5q-216 0 -341 83t-142 234zM346 567q0 -82 64 -131t178 -76l100 -22 q134 3 213.5 64.5t79.5 154.5q0 71 -53 122t-160 75l-125 30q-131 -3 -214 -63.5t-83 -153.5z" />
<glyph unicode="&#xa8;" horiz-adv-x="1024" d="M219 1165q0 42 26.5 69.5t69.5 27.5q42 0 69.5 -27.5t27.5 -69.5q0 -43 -27 -69.5t-70 -26.5q-44 0 -70 26.5t-26 69.5zM612 1165q0 42 27.5 69.5t69.5 27.5q43 0 69.5 -27.5t26.5 -69.5q0 -43 -26 -69.5t-70 -26.5q-43 0 -70 26.5t-27 69.5z" />
<glyph unicode="&#xa9;" horiz-adv-x="1742" d="M133 717q0 152 58 288.5t156.5 235t235.5 156t289 57.5t288.5 -57.5t235 -156t156.5 -235t58 -288.5t-58 -288.5t-156.5 -235t-235 -156t-288.5 -57.5t-289 57.5t-235.5 156t-156.5 235t-58 288.5zM268 717q0 -171 79 -311.5t218 -221t307 -80.5t306.5 80.5t218.5 221.5 t80 311q0 128 -47 241.5t-127.5 194.5t-192.5 128.5t-238 47.5q-168 0 -307 -80.5t-218 -220.5t-79 -311zM485 717q0 167 115.5 283t282.5 116q154 0 251 -81t111 -197h-141q-18 67 -74.5 110t-142.5 43q-117 0 -190.5 -77t-73.5 -197t73.5 -197.5t190.5 -77.5 q90 0 146.5 44t72.5 112h141q-14 -115 -111.5 -198t-250.5 -83q-168 0 -284 116t-116 284z" />
<glyph unicode="&#xaa;" horiz-adv-x="983" d="M74 1051q0 167 112.5 282t272.5 115q168 0 282 -131v117h119v-766h-119v114q-112 -129 -282 -129q-160 0 -272.5 115.5t-112.5 282.5zM207 1051q0 -123 74 -202t194 -79q111 0 188.5 80.5t77.5 200.5t-77.5 200t-188.5 80q-120 0 -194 -78.5t-74 -201.5z" />
<glyph unicode="&#xab;" horiz-adv-x="970" d="M100 471l230 369h155l-229 -369l229 -369h-155zM483 471l230 369h155l-229 -369l229 -369h-155z" />
<glyph unicode="&#xac;" horiz-adv-x="1150" d="M100 715v129h889v-494h-143v365h-746z" />
<glyph unicode="&#xad;" horiz-adv-x="802" d="M98 383v127h609v-127h-609z" />
<glyph unicode="&#xae;" horiz-adv-x="985" d="M82 1040q0 170 120 290t290 120q172 0 291.5 -120t119.5 -290q0 -172 -119.5 -291.5t-291.5 -119.5q-170 0 -290 119.5t-120 291.5zM168 1040q0 -139 93 -233t231 -94t230.5 93.5t92.5 233.5t-92.5 234t-230.5 94t-231 -94t-93 -234zM344 848v391h178q72 0 112 -33.5 t40 -91.5q0 -46 -25.5 -80t-70.5 -47l104 -139h-100l-99 133h-47v-133h-92zM436 1057h84q62 0 62 55q0 51 -62 51h-84v-106z" />
<glyph unicode="&#xaf;" horiz-adv-x="1024" d="M203 1104v119h618v-119h-618z" />
<glyph unicode="&#xb0;" horiz-adv-x="743" d="M74 1159q0 130 84.5 216.5t214.5 86.5q127 0 212 -87t85 -216q0 -128 -85 -214.5t-212 -86.5q-130 0 -214.5 86.5t-84.5 214.5zM190 1159q0 -82 52 -136t131 -54q78 0 129 54t51 136q0 83 -51 138t-129 55q-79 0 -131 -55t-52 -138z" />
<glyph unicode="&#xb1;" horiz-adv-x="1249" d="M223 0v133h803v-133h-803zM223 518v133h332v293h139v-293h332v-133h-332v-293h-139v293h-332z" />
<glyph unicode="&#xb2;" horiz-adv-x="794" d="M98 1554q6 120 83 194.5t216 74.5q135 0 210 -63t75 -167q0 -85 -47.5 -149.5t-142.5 -136.5l-175 -133h381v-113h-589v90l292 225q84 68 119 113.5t35 99.5q0 55 -42 88t-118 33q-166 0 -176 -156h-121z" />
<glyph unicode="&#xb3;" horiz-adv-x="794" d="M80 1290h121q12 -135 192 -135t180 129q0 58 -34.5 84.5t-108.5 26.5h-94v106h94q123 0 123 94q0 58 -43.5 87.5t-118.5 29.5q-86 0 -131.5 -36.5t-50.5 -100.5h-119q8 116 86.5 182t216.5 66q124 0 203.5 -56t79.5 -165q0 -53 -26.5 -92.5t-67.5 -51.5q56 -15 87 -60.5 t31 -115.5q0 -110 -86 -174t-221 -64q-146 0 -225 63t-88 183z" />
<glyph unicode="&#xb4;" horiz-adv-x="1024" d="M408 1122l284 289l107 -117l-320 -241z" />
<glyph unicode="&#xb5;" horiz-adv-x="1134" d="M158 -442v1331h143v-496q0 -132 66 -205t192 -73q122 0 198.5 76.5t76.5 207.5v490h143v-889h-141v143q-43 -75 -121 -117t-162 -42q-81 0 -149 27t-103 73v-526h-143z" />
<glyph unicode="&#xb6;" horiz-adv-x="1161" d="M109 926q0 213 149 360.5t363 147.5h469v-134h-160q-65 0 -92 -28t-27 -92v-1325q0 -151 -70.5 -230.5t-201.5 -79.5q-46 0 -113 13v133q50 -6 84 -6q81 0 115 47.5t34 150.5v533h-38q-105 0 -200 39.5t-163.5 107.5t-108.5 162.5t-40 200.5z" />
<glyph unicode="&#xb7;" horiz-adv-x="497" d="M135 446q0 50 31.5 81.5t81.5 31.5q51 0 81.5 -31.5t30.5 -81.5q0 -48 -31 -80t-81 -32q-49 0 -81 32t-32 80z" />
<glyph unicode="&#xb8;" horiz-adv-x="1024" d="M360 -330l127 334h136l-103 -334h-160z" />
<glyph unicode="&#xb9;" horiz-adv-x="794" d="M147 1708l275 102h100v-749h-125v612l-215 -67z" />
<glyph unicode="&#xba;" horiz-adv-x="944" d="M74 1051q0 166 115.5 281.5t281.5 115.5q167 0 283 -115.5t116 -281.5q0 -167 -116 -282.5t-283 -115.5q-166 0 -281.5 115.5t-115.5 282.5zM207 1051q0 -122 75.5 -201.5t188.5 -79.5q115 0 191.5 79.5t76.5 201.5t-76.5 200t-191.5 78q-114 0 -189 -78t-75 -200z" />
<glyph unicode="&#xbb;" horiz-adv-x="970" d="M102 102l228 369l-228 369h154l229 -369l-229 -369h-154zM485 102l228 369l-228 369h154l229 -369l-229 -369h-154z" />
<glyph unicode="&#xbc;" horiz-adv-x="1847" d="M147 1335l275 103h100v-750h-125v612l-215 -67zM424 0l903 1434h139l-903 -1434h-139zM1120 164v94l445 492h106v-476h119v-110h-119v-164h-127v164h-424zM1268 274h278v308z" />
<glyph unicode="&#xbd;" horiz-adv-x="1847" d="M147 1335l275 103h100v-750h-125v612l-215 -67zM389 0l903 1434h140l-904 -1434h-139zM1149 494q6 120 83 194t216 74q135 0 210 -63t75 -167q0 -85 -48 -149.5t-143 -136.5l-174 -133h381v-113h-590v90l293 225q84 68 119 113.5t35 99.5q0 55 -42 88t-118 33 q-167 0 -176 -155h-121z" />
<glyph unicode="&#xbe;" horiz-adv-x="1847" d="M80 918h121q12 -136 192 -136t180 129q0 58 -34.5 84.5t-108.5 26.5h-94v106h94q63 0 93 25.5t30 69.5q0 58 -43.5 87t-118.5 29q-86 0 -131.5 -36.5t-50.5 -100.5h-119q8 116 86.5 182t216.5 66q124 0 203.5 -56t79.5 -165q0 -53 -26.5 -92.5t-67.5 -51.5 q56 -15 87 -60.5t31 -115.5q0 -110 -86 -173.5t-221 -63.5q-146 0 -225 63t-88 183zM463 0l903 1434h139l-903 -1434h-139zM1120 164v94l445 492h106v-476h119v-110h-119v-164h-127v164h-424zM1268 274h278v308z" />
<glyph unicode="&#xbf;" horiz-adv-x="1105" d="M123 -154q0 65 27 126.5t63.5 105t93.5 88.5t97 69.5t94 53.5l18 186h117l20 -248q-48 -24 -71.5 -36t-70 -38.5t-72 -45.5t-60.5 -50t-53 -59.5t-31.5 -66t-13.5 -76.5q0 -132 85 -206.5t255 -74.5q346 0 366 305h150q-13 -205 -142.5 -324.5t-376.5 -119.5 q-238 0 -366.5 112.5t-128.5 298.5zM463 788q0 48 32 79.5t83 31.5q49 0 80.5 -31.5t31.5 -79.5q0 -50 -31 -81t-81 -31q-51 0 -83 31t-32 81z" />
<glyph unicode="&#xc0;" horiz-adv-x="1531" d="M68 0l639 1442h120l637 -1442h-155l-174 395h-742l-172 -395h-153zM455 535h620l-311 708zM457 1755l106 123l273 -254l-72 -76z" />
<glyph unicode="&#xc1;" horiz-adv-x="1531" d="M68 0l639 1442h120l637 -1442h-155l-174 395h-742l-172 -395h-153zM455 535h620l-311 708zM692 1624l273 254l106 -123l-307 -207z" />
<glyph unicode="&#xc2;" horiz-adv-x="1531" d="M68 0l639 1442h120l637 -1442h-155l-174 395h-742l-172 -395h-153zM430 1556l254 279h160l254 -279h-154l-180 164l-180 -164h-154zM455 535h620l-311 708z" />
<glyph unicode="&#xc3;" horiz-adv-x="1531" d="M68 0l639 1442h120l637 -1442h-155l-174 395h-742l-172 -395h-153zM434 1567q20 90 67.5 142t123.5 52q58 0 146.5 -41t127.5 -41q65 0 92 76l103 -14q-20 -90 -67.5 -141.5t-123.5 -51.5q-58 0 -146.5 41t-127.5 41q-65 0 -92 -76zM455 535h620l-311 708z" />
<glyph unicode="&#xc4;" horiz-adv-x="1531" d="M68 0l639 1442h120l637 -1442h-155l-174 395h-742l-172 -395h-153zM446 1649q0 43 28 70.5t73 27.5q44 0 72 -27.5t28 -70.5q0 -44 -28 -72.5t-72 -28.5q-45 0 -73 28t-28 73zM455 535h620l-311 708zM881 1649q0 43 28 70.5t72 27.5q45 0 72.5 -27.5t27.5 -70.5 q0 -45 -27.5 -73t-72.5 -28q-44 0 -72 28.5t-28 72.5z" />
<glyph unicode="&#xc5;" horiz-adv-x="1531" d="M68 0l639 1442h120l637 -1442h-155l-174 395h-742l-172 -395h-153zM455 535h620l-311 708zM555 1747q0 88 59 144.5t150 56.5t150 -56.5t59 -144.5q0 -86 -59 -142.5t-150 -56.5t-150 56.5t-59 142.5zM655 1747q0 -47 31 -78t78 -31t77.5 31t30.5 78t-30.5 77.5 t-77.5 30.5t-78 -30.5t-31 -77.5z" />
<glyph unicode="&#xc6;" horiz-adv-x="2285" d="M29 0l1056 1434h1047v-140h-838v-501h789v-140h-789v-514h846v-139h-997v379h-660l-276 -379h-178zM586 518h557v762z" />
<glyph unicode="&#xc7;" horiz-adv-x="1660" d="M135 717q0 204 96 372.5t267 266.5t381 98q253 0 436 -135t229 -354h-162q-32 151 -167.5 248.5t-335.5 97.5q-255 0 -419.5 -168t-164.5 -426t164.5 -426t419.5 -168q202 0 338.5 98t168.5 250h162q-43 -205 -207.5 -337.5t-396.5 -151.5l-92 -320h-172l123 322 q-192 17 -345 118t-238 262.5t-85 352.5z" />
<glyph unicode="&#xc8;" horiz-adv-x="1349" d="M207 0v1434h989v-140h-838v-501h789v-140h-789v-514h846v-139h-997zM422 1755l106 123l273 -254l-72 -76z" />
<glyph unicode="&#xc9;" horiz-adv-x="1349" d="M207 0v1434h989v-140h-838v-501h789v-140h-789v-514h846v-139h-997zM655 1624l273 254l106 -123l-307 -207z" />
<glyph unicode="&#xca;" horiz-adv-x="1349" d="M207 0v1434h989v-140h-838v-501h789v-140h-789v-514h846v-139h-997zM395 1556l254 279h160l254 -279h-154l-180 164l-180 -164h-154z" />
<glyph unicode="&#xcb;" horiz-adv-x="1349" d="M207 0v1434h989v-140h-838v-501h789v-140h-789v-514h846v-139h-997zM412 1649q0 43 27.5 70.5t72.5 27.5q44 0 72 -27.5t28 -70.5q0 -44 -28 -72.5t-72 -28.5q-45 0 -72.5 28t-27.5 73zM846 1649q0 43 28 70.5t72 27.5q45 0 73 -27.5t28 -70.5q0 -45 -28 -73t-73 -28 q-44 0 -72 28.5t-28 72.5z" />
<glyph unicode="&#xcc;" horiz-adv-x="589" d="M-12 1755l106 123l273 -254l-72 -76zM219 0v1434h152v-1434h-152z" />
<glyph unicode="&#xcd;" horiz-adv-x="589" d="M219 0v1434h152v-1434h-152zM223 1624l273 254l106 -123l-307 -207z" />
<glyph unicode="&#xce;" horiz-adv-x="589" d="M-39 1556l254 279h160l254 -279h-154l-180 164l-180 -164h-154zM219 0v1434h152v-1434h-152z" />
<glyph unicode="&#xcf;" horiz-adv-x="589" d="M-23 1649q0 43 28 70.5t73 27.5q44 0 72 -27.5t28 -70.5q0 -44 -28 -72.5t-72 -28.5q-45 0 -73 28t-28 73zM219 0v1434h152v-1434h-152zM412 1649q0 43 28 70.5t72 27.5q45 0 72.5 -27.5t27.5 -70.5q0 -45 -27.5 -73t-72.5 -28q-44 0 -72 28.5t-28 72.5z" />
<glyph unicode="&#xd0;" horiz-adv-x="1579" d="M27 659v121h180v654h483q167 0 308.5 -53.5t239.5 -147.5t153 -226t55 -286q0 -208 -94 -371.5t-267.5 -256.5t-398.5 -93h-479v659h-180zM358 143h328q284 0 441 158.5t157 419.5q0 169 -68 296.5t-203 200t-323 72.5h-332v-510h385v-121h-385v-516z" />
<glyph unicode="&#xd1;" horiz-adv-x="1615" d="M207 0v1438h137l916 -1198v1194h149v-1438h-137l-916 1198v-1194h-149zM479 1567q20 90 67.5 142t123.5 52q58 0 146.5 -41t127.5 -41q65 0 92 76l103 -14q-20 -90 -67.5 -141.5t-123.5 -51.5q-58 0 -146.5 41t-127.5 41q-65 0 -92 -76z" />
<glyph unicode="&#xd2;" horiz-adv-x="1744" d="M135 717q0 152 57.5 288.5t156 235t235 156t288.5 57.5t288.5 -57.5t235 -156t156.5 -235t58 -288.5t-58 -288.5t-156.5 -235t-235 -156t-288.5 -57.5t-288.5 57.5t-235 156t-156 235t-57.5 288.5zM295 717q0 -168 76 -304.5t208 -213t293 -76.5t293.5 76.5t208.5 213 t76 304.5t-76 304.5t-208.5 213t-293.5 76.5t-293 -76.5t-208 -213t-76 -304.5zM565 1755l107 123l272 -254l-72 -76z" />
<glyph unicode="&#xd3;" horiz-adv-x="1744" d="M135 717q0 152 57.5 288.5t156 235t235 156t288.5 57.5t288.5 -57.5t235 -156t156.5 -235t58 -288.5t-58 -288.5t-156.5 -235t-235 -156t-288.5 -57.5t-288.5 57.5t-235 156t-156 235t-57.5 288.5zM295 717q0 -168 76 -304.5t208 -213t293 -76.5t293.5 76.5t208.5 213 t76 304.5t-76 304.5t-208.5 213t-293.5 76.5t-293 -76.5t-208 -213t-76 -304.5zM801 1624l272 254l107 -123l-308 -207z" />
<glyph unicode="&#xd4;" horiz-adv-x="1744" d="M135 717q0 152 57.5 288.5t156 235t235 156t288.5 57.5t288.5 -57.5t235 -156t156.5 -235t58 -288.5t-58 -288.5t-156.5 -235t-235 -156t-288.5 -57.5t-288.5 57.5t-235 156t-156 235t-57.5 288.5zM295 717q0 -168 76 -304.5t208 -213t293 -76.5t293.5 76.5t208.5 213 t76 304.5t-76 304.5t-208.5 213t-293.5 76.5t-293 -76.5t-208 -213t-76 -304.5zM539 1556l254 279h159l254 -279h-153l-181 164l-180 -164h-153z" />
<glyph unicode="&#xd5;" horiz-adv-x="1744" d="M135 717q0 152 57.5 288.5t156 235t235 156t288.5 57.5t288.5 -57.5t235 -156t156.5 -235t58 -288.5t-58 -288.5t-156.5 -235t-235 -156t-288.5 -57.5t-288.5 57.5t-235 156t-156 235t-57.5 288.5zM295 717q0 -168 76 -304.5t208 -213t293 -76.5t293.5 76.5t208.5 213 t76 304.5t-76 304.5t-208.5 213t-293.5 76.5t-293 -76.5t-208 -213t-76 -304.5zM543 1567q20 90 67 142t123 52q58 0 147 -41t128 -41q65 0 92 76l102 -14q-43 -193 -190 -193q-58 0 -147 41t-128 41q-65 0 -92 -76z" />
<glyph unicode="&#xd6;" horiz-adv-x="1744" d="M135 717q0 152 57.5 288.5t156 235t235 156t288.5 57.5t288.5 -57.5t235 -156t156.5 -235t58 -288.5t-58 -288.5t-156.5 -235t-235 -156t-288.5 -57.5t-288.5 57.5t-235 156t-156 235t-57.5 288.5zM295 717q0 -168 76 -304.5t208 -213t293 -76.5t293.5 76.5t208.5 213 t76 304.5t-76 304.5t-208.5 213t-293.5 76.5t-293 -76.5t-208 -213t-76 -304.5zM555 1649q0 43 27.5 70.5t72.5 27.5q44 0 72.5 -27.5t28.5 -70.5q0 -44 -28.5 -72.5t-72.5 -28.5q-45 0 -72.5 28t-27.5 73zM989 1649q0 43 28.5 70.5t72.5 27.5q45 0 72.5 -27.5t27.5 -70.5 q0 -45 -27.5 -73t-72.5 -28q-44 0 -72.5 28.5t-28.5 72.5z" />
<glyph unicode="&#xd7;" horiz-adv-x="1249" d="M272 246l254 254l-254 254l99 98l254 -254l254 254l98 -98l-254 -254l254 -254l-98 -99l-254 254l-254 -254z" />
<glyph unicode="&#xd8;" horiz-adv-x="1744" d="M135 717q0 152 57.5 288.5t156 235t235 156t288.5 57.5q258 0 461 -160l142 152l86 -84l-142 -150q91 -99 141 -226t50 -269q0 -152 -58 -288.5t-156.5 -235t-235 -156t-288.5 -57.5q-263 0 -462 159l-140 -151l-88 84l140 149q-187 209 -187 496zM295 717 q0 -223 133 -385l803 854q-157 125 -359 125q-120 0 -227 -46t-184 -125t-121.5 -189t-44.5 -234zM510 248q153 -125 362 -125q161 0 293.5 78t208.5 214.5t76 301.5q0 223 -135 387z" />
<glyph unicode="&#xd9;" horiz-adv-x="1574" d="M195 575v859h153v-834q0 -234 118.5 -355.5t324.5 -121.5q205 0 322.5 121.5t117.5 355.5v834h149v-859q0 -143 -44.5 -257t-124 -187.5t-187.5 -112t-236 -38.5q-129 0 -237 38.5t-187.5 112t-124 187t-44.5 257.5zM483 1755l107 123l272 -254l-71 -76z" />
<glyph unicode="&#xda;" horiz-adv-x="1574" d="M195 575v859h153v-834q0 -234 118.5 -355.5t324.5 -121.5q205 0 322.5 121.5t117.5 355.5v834h149v-859q0 -143 -44.5 -257t-124 -187.5t-187.5 -112t-236 -38.5q-129 0 -237 38.5t-187.5 112t-124 187t-44.5 257.5zM717 1624l272 254l107 -123l-308 -207z" />
<glyph unicode="&#xdb;" horiz-adv-x="1574" d="M195 575v859h153v-834q0 -234 118.5 -355.5t324.5 -121.5q205 0 322.5 121.5t117.5 355.5v834h149v-859q0 -143 -44.5 -257t-124 -187.5t-187.5 -112t-236 -38.5q-129 0 -237 38.5t-187.5 112t-124 187t-44.5 257.5zM457 1556l254 279h159l254 -279h-153l-180 164 l-181 -164h-153z" />
<glyph unicode="&#xdc;" horiz-adv-x="1574" d="M195 575v859h153v-834q0 -234 118.5 -355.5t324.5 -121.5q205 0 322.5 121.5t117.5 355.5v834h149v-859q0 -143 -44.5 -257t-124 -187.5t-187.5 -112t-236 -38.5q-129 0 -237 38.5t-187.5 112t-124 187t-44.5 257.5zM473 1649q0 43 27.5 70.5t72.5 27.5q44 0 72.5 -27.5 t28.5 -70.5q0 -44 -28.5 -72.5t-72.5 -28.5q-45 0 -72.5 28t-27.5 73zM907 1649q0 43 28.5 70.5t72.5 27.5q45 0 72.5 -27.5t27.5 -70.5q0 -45 -27.5 -73t-72.5 -28q-44 0 -72.5 28.5t-28.5 72.5z" />
<glyph unicode="&#xdd;" horiz-adv-x="1372" d="M29 1434h172l483 -732l487 732h172l-581 -873v-561h-152v561zM614 1624l273 254l106 -123l-307 -207z" />
<glyph unicode="&#xde;" horiz-adv-x="1413" d="M207 0v1434h151v-226h453q234 0 363 -112.5t129 -309.5q0 -198 -135.5 -318t-366.5 -120h-443v-348h-151zM358 487h428q361 0 361 291q0 289 -361 289h-428v-580z" />
<glyph unicode="&#xdf;" horiz-adv-x="1363" d="M158 0v924q0 239 144.5 384.5t404.5 145.5q223 0 357 -110t134 -281q0 -128 -63.5 -215.5t-151.5 -116.5q53 -11 101 -37t88.5 -67.5t65 -103.5t24.5 -136q0 -201 -130 -304t-350 -103q-174 0 -278 38v119q129 -33 276 -33q160 0 247 72t87 215q0 137 -97 204t-263 67 h-115v122h88q76 0 133 12.5t102.5 42t69 83t23.5 129.5q0 125 -94.5 202.5t-255.5 77.5q-203 0 -303.5 -109t-100.5 -309v-913h-143z" />
<glyph unicode="&#xe0;" horiz-adv-x="1171" d="M98 444q0 196 128.5 329.5t320.5 133.5q198 0 325 -157v139h140v-889h-140v139q-60 -72 -143 -113.5t-182 -41.5q-194 0 -321.5 132t-127.5 328zM229 1294l107 117l285 -289l-72 -69zM246 444q0 -146 86.5 -240.5t224.5 -94.5q129 0 220 96t91 239q0 144 -91 240t-220 96 q-139 0 -225 -94.5t-86 -241.5z" />
<glyph unicode="&#xe1;" horiz-adv-x="1171" d="M98 444q0 196 128.5 329.5t320.5 133.5q198 0 325 -157v139h140v-889h-140v139q-60 -72 -143 -113.5t-182 -41.5q-194 0 -321.5 132t-127.5 328zM246 444q0 -146 86.5 -240.5t224.5 -94.5q129 0 220 96t91 239q0 144 -91 240t-220 96q-139 0 -225 -94.5t-86 -241.5z M477 1122l285 289l106 -117l-319 -241z" />
<glyph unicode="&#xe2;" horiz-adv-x="1171" d="M98 444q0 196 128.5 329.5t320.5 133.5q198 0 325 -157v139h140v-889h-140v139q-60 -72 -143 -113.5t-182 -41.5q-194 0 -321.5 132t-127.5 328zM223 1065l246 287h160l245 -287h-151l-174 176l-174 -176h-152zM246 444q0 -146 86.5 -240.5t224.5 -94.5q129 0 220 96 t91 239q0 144 -91 240t-220 96q-139 0 -225 -94.5t-86 -241.5z" />
<glyph unicode="&#xe3;" horiz-adv-x="1171" d="M98 444q0 196 128.5 329.5t320.5 133.5q198 0 325 -157v139h140v-889h-140v139q-60 -72 -143 -113.5t-182 -41.5q-194 0 -321.5 132t-127.5 328zM227 1071q20 89 66.5 141t120.5 52q46 0 138 -42t128 -42t57 18t35 57l98 -8q-42 -192 -186 -192q-45 0 -137.5 42 t-128.5 42q-35 0 -56.5 -19t-35.5 -59zM246 444q0 -146 86.5 -240.5t224.5 -94.5q129 0 220 96t91 239q0 144 -91 240t-220 96q-139 0 -225 -94.5t-86 -241.5z" />
<glyph unicode="&#xe4;" horiz-adv-x="1171" d="M98 444q0 196 128.5 329.5t320.5 133.5q198 0 325 -157v139h140v-889h-140v139q-60 -72 -143 -113.5t-182 -41.5q-194 0 -321.5 132t-127.5 328zM246 444q0 -146 86.5 -240.5t224.5 -94.5q129 0 220 96t91 239q0 144 -91 240t-220 96q-139 0 -225 -94.5t-86 -241.5z M256 1165q0 42 26.5 69.5t69.5 27.5q42 0 69.5 -27.5t27.5 -69.5q0 -43 -27 -69.5t-70 -26.5q-44 0 -70 26.5t-26 69.5zM649 1165q0 42 27 69.5t69 27.5q44 0 70.5 -27.5t26.5 -69.5q0 -43 -26.5 -69.5t-70.5 -26.5q-43 0 -69.5 26.5t-26.5 69.5z" />
<glyph unicode="&#xe5;" horiz-adv-x="1171" d="M98 444q0 196 128.5 329.5t320.5 133.5q198 0 325 -157v139h140v-889h-140v139q-60 -72 -143 -113.5t-182 -41.5q-194 0 -321.5 132t-127.5 328zM246 444q0 -146 86.5 -240.5t224.5 -94.5q129 0 220 96t91 239q0 144 -91 240t-220 96q-139 0 -225 -94.5t-86 -241.5z M344 1231q0 85 58 139.5t147 54.5t147 -54.5t58 -139.5q0 -86 -58 -141.5t-147 -55.5t-147 55.5t-58 141.5zM438 1231q0 -49 31 -80t80 -31t79.5 30.5t30.5 80.5q0 49 -30.5 79.5t-79.5 30.5q-50 0 -80.5 -30.5t-30.5 -79.5z" />
<glyph unicode="&#xe6;" horiz-adv-x="1697" d="M94 246q0 122 85 189t249 67h334q2 27 10 65q-9 102 -73.5 158.5t-176.5 56.5q-100 0 -163 -34.5t-72 -90.5h-140q14 107 113 177.5t260 70.5q244 0 332 -162q58 78 144.5 121t189.5 43q185 0 302.5 -134t117.5 -329q0 -28 -2 -55h-711v-8q17 -130 101 -203.5t200 -73.5 q103 0 172 44t84 116h135q-25 -122 -133 -201t-262 -79q-114 0 -206 50t-150 140q-51 -82 -151.5 -135t-248.5 -53q-70 0 -129 14t-107.5 43.5t-76 81t-27.5 121.5zM233 246q0 -144 201 -144q142 0 235 59t103 163q-8 38 -10 65h-305q-122 0 -173 -34.5t-51 -108.5zM893 502 h567q-13 131 -89.5 206.5t-184.5 75.5q-113 0 -194.5 -74t-98.5 -204v-4z" />
<glyph unicode="&#xe7;" horiz-adv-x="1056" d="M98 444q0 194 133 328.5t326 134.5q180 0 294 -93.5t128 -227.5h-148q-18 83 -88.5 137.5t-181.5 54.5q-139 0 -227 -93.5t-88 -240.5q0 -145 88.5 -238t228.5 -93q113 0 183 54.5t88 139.5h147q-13 -122 -107 -212t-247 -107l-99 -322h-159l123 324 q-171 23 -282.5 150.5t-111.5 303.5z" />
<glyph unicode="&#xe8;" horiz-adv-x="1056" d="M98 444q0 206 121 334.5t316 128.5q198 0 314 -131.5t116 -331.5q0 -28 -2 -57h-721q15 -138 97 -210.5t208 -72.5q104 0 175.5 44t86.5 114h135q-25 -121 -135.5 -199.5t-265.5 -78.5q-196 0 -320.5 127.5t-124.5 332.5zM219 1294l107 117l284 -289l-71 -69zM242 504 h577q-13 136 -89.5 208t-197.5 72q-120 0 -197.5 -72.5t-92.5 -207.5z" />
<glyph unicode="&#xe9;" horiz-adv-x="1056" d="M98 444q0 206 121 334.5t316 128.5q198 0 314 -131.5t116 -331.5q0 -28 -2 -57h-721q15 -138 97 -210.5t208 -72.5q104 0 175.5 44t86.5 114h135q-25 -121 -135.5 -199.5t-265.5 -78.5q-196 0 -320.5 127.5t-124.5 332.5zM242 504h577q-13 136 -89.5 208t-197.5 72 q-120 0 -197.5 -72.5t-92.5 -207.5zM467 1122l285 289l106 -117l-319 -241z" />
<glyph unicode="&#xea;" horiz-adv-x="1056" d="M98 444q0 206 121 334.5t316 128.5q198 0 314 -131.5t116 -331.5q0 -28 -2 -57h-721q15 -138 97 -210.5t208 -72.5q104 0 175.5 44t86.5 114h135q-25 -121 -135.5 -199.5t-265.5 -78.5q-196 0 -320.5 127.5t-124.5 332.5zM213 1065l246 287h159l246 -287h-151l-174 176 l-174 -176h-152zM242 504h577q-13 136 -89.5 208t-197.5 72q-120 0 -197.5 -72.5t-92.5 -207.5z" />
<glyph unicode="&#xeb;" horiz-adv-x="1056" d="M98 444q0 206 121 334.5t316 128.5q198 0 314 -131.5t116 -331.5q0 -28 -2 -57h-721q15 -138 97 -210.5t208 -72.5q104 0 175.5 44t86.5 114h135q-25 -121 -135.5 -199.5t-265.5 -78.5q-196 0 -320.5 127.5t-124.5 332.5zM242 504h577q-13 136 -89.5 208t-197.5 72 q-120 0 -197.5 -72.5t-92.5 -207.5zM246 1165q0 42 26.5 69.5t69.5 27.5q42 0 69 -27.5t27 -69.5q0 -43 -26.5 -69.5t-69.5 -26.5q-44 0 -70 26.5t-26 69.5zM639 1165q0 42 27 69.5t69 27.5q43 0 69.5 -27.5t26.5 -69.5q0 -43 -26 -69.5t-70 -26.5q-43 0 -69.5 26.5 t-26.5 69.5z" />
<glyph unicode="&#xec;" horiz-adv-x="466" d="M-86 1294l106 117l285 -289l-72 -69zM162 0v889h143v-889h-143z" />
<glyph unicode="&#xed;" horiz-adv-x="466" d="M162 0v889h143v-889h-143zM162 1122l284 289l107 -117l-320 -241z" />
<glyph unicode="&#xee;" horiz-adv-x="466" d="M-63 1065l217 283h159l217 -283h-149l-148 174l-147 -174h-149zM162 0v889h143v-889h-143z" />
<glyph unicode="&#xef;" horiz-adv-x="466" d="M-39 1165q0 42 27 69.5t69 27.5q44 0 70.5 -27.5t26.5 -69.5q0 -43 -26.5 -69.5t-70.5 -26.5q-43 0 -69.5 26.5t-26.5 69.5zM162 0v889h143v-889h-143zM313 1165q0 42 26.5 69.5t70.5 27.5q42 0 69 -27.5t27 -69.5q0 -43 -26.5 -69.5t-69.5 -26.5q-44 0 -70.5 26.5 t-26.5 69.5z" />
<glyph unicode="&#xf0;" horiz-adv-x="1126" d="M98 442q0 193 134.5 326t328.5 133q135 0 266 -92q-83 164 -252 317l-247 -143l-62 102l211 123q-104 75 -211 127l66 107q138 -72 256 -170l278 162l62 -101l-246 -143q157 -152 251.5 -335.5t94.5 -375.5q0 -221 -133.5 -358t-333.5 -137q-194 0 -328.5 132.5 t-134.5 325.5zM246 442q0 -144 90 -237.5t225 -93.5t225.5 93.5t90.5 237.5t-90.5 238t-225.5 94q-134 0 -224.5 -94t-90.5 -238z" />
<glyph unicode="&#xf1;" horiz-adv-x="1126" d="M158 0v889h141v-144q45 78 127 120t184 42q166 0 268.5 -100.5t102.5 -265.5v-541h-143v496q0 133 -66.5 206.5t-193.5 73.5q-123 0 -200 -77t-77 -207v-492h-143zM260 1071q20 89 66 141t120 52q46 0 138 -42t129 -42q36 0 57 18t35 57l98 -8q-42 -192 -186 -192 q-45 0 -137 42t-129 42q-36 0 -57.5 -19t-35.5 -59z" />
<glyph unicode="&#xf2;" d="M98 444q0 194 135 328.5t328 134.5t328 -134.5t135 -328.5q0 -193 -134.5 -326.5t-328.5 -133.5t-328.5 133.5t-134.5 326.5zM242 1294l106 117l285 -289l-72 -69zM246 444q0 -144 90.5 -238.5t224.5 -94.5t225 94.5t91 238.5q0 145 -91 240.5t-225 95.5t-224.5 -95.5 t-90.5 -240.5z" />
<glyph unicode="&#xf3;" d="M98 444q0 194 135 328.5t328 134.5t328 -134.5t135 -328.5q0 -193 -134.5 -326.5t-328.5 -133.5t-328.5 133.5t-134.5 326.5zM246 444q0 -144 90.5 -238.5t224.5 -94.5t225 94.5t91 238.5q0 145 -91 240.5t-225 95.5t-224.5 -95.5t-90.5 -240.5zM489 1122l285 289 l107 -117l-320 -241z" />
<glyph unicode="&#xf4;" d="M98 444q0 194 135 328.5t328 134.5t328 -134.5t135 -328.5q0 -193 -134.5 -326.5t-328.5 -133.5t-328.5 133.5t-134.5 326.5zM236 1065l245 287h160l246 -287h-152l-174 176l-174 -176h-151zM246 444q0 -144 90.5 -238.5t224.5 -94.5t225 94.5t91 238.5q0 145 -91 240.5 t-225 95.5t-224.5 -95.5t-90.5 -240.5z" />
<glyph unicode="&#xf5;" d="M98 444q0 194 135 328.5t328 134.5t328 -134.5t135 -328.5q0 -193 -134.5 -326.5t-328.5 -133.5t-328.5 133.5t-134.5 326.5zM240 1071q20 89 66 141t120 52q46 0 138 -42t128 -42t57 18t35 57l99 -8q-20 -90 -66 -141t-121 -51q-46 0 -138 42t-128 42q-35 0 -56.5 -19 t-35.5 -59zM246 444q0 -144 90.5 -238.5t224.5 -94.5t225 94.5t91 238.5q0 145 -91 240.5t-225 95.5t-224.5 -95.5t-90.5 -240.5z" />
<glyph unicode="&#xf6;" d="M98 444q0 194 135 328.5t328 134.5t328 -134.5t135 -328.5q0 -193 -134.5 -326.5t-328.5 -133.5t-328.5 133.5t-134.5 326.5zM246 444q0 -144 90.5 -238.5t224.5 -94.5t225 94.5t91 238.5q0 145 -91 240.5t-225 95.5t-224.5 -95.5t-90.5 -240.5zM268 1165q0 42 26.5 69.5 t70.5 27.5q42 0 69 -27.5t27 -69.5q0 -43 -26.5 -69.5t-69.5 -26.5q-44 0 -70.5 26.5t-26.5 69.5zM662 1165q0 42 27 69.5t69 27.5q43 0 69.5 -27.5t26.5 -69.5q0 -43 -26 -69.5t-70 -26.5q-43 0 -69.5 26.5t-26.5 69.5z" />
<glyph unicode="&#xf7;" horiz-adv-x="1249" d="M233 434v133h783v-133h-783zM514 156q0 46 32 78t79 32q49 0 79.5 -31.5t30.5 -78.5q0 -48 -30.5 -79.5t-79.5 -31.5q-47 0 -79 32t-32 79zM514 846q0 46 32 78t79 32q49 0 79.5 -31.5t30.5 -78.5q0 -48 -30.5 -79.5t-79.5 -31.5q-47 0 -79 32t-32 79z" />
<glyph unicode="&#xf8;" d="M98 444q0 194 135 328.5t328 134.5q153 0 279 -92l78 82l69 -70l-76 -79q113 -132 113 -304q0 -193 -134.5 -326.5t-328.5 -133.5q-158 0 -278 90l-78 -82l-70 69l74 82q-111 127 -111 301zM246 444q0 -117 59 -200l443 475q-80 61 -187 61q-134 0 -224.5 -95.5 t-90.5 -240.5zM373 172q83 -61 188 -61q134 0 225 94.5t91 238.5q0 116 -62 203z" />
<glyph unicode="&#xf9;" d="M145 348v541h144v-496q0 -132 66 -205t192 -73q122 0 198 76.5t76 207.5v490h144v-889h-142v145q-45 -78 -127 -119.5t-182 -41.5q-165 0 -267 99.5t-102 264.5zM236 1294l106 117l285 -289l-72 -69z" />
<glyph unicode="&#xfa;" d="M145 348v541h144v-496q0 -132 66 -205t192 -73q122 0 198 76.5t76 207.5v490h144v-889h-142v145q-45 -78 -127 -119.5t-182 -41.5q-165 0 -267 99.5t-102 264.5zM483 1122l285 289l106 -117l-319 -241z" />
<glyph unicode="&#xfb;" d="M145 348v541h144v-496q0 -132 66 -205t192 -73q122 0 198 76.5t76 207.5v490h144v-889h-142v145q-45 -78 -127 -119.5t-182 -41.5q-165 0 -267 99.5t-102 264.5zM229 1065l246 287h160l246 -287h-152l-174 176l-174 -176h-152z" />
<glyph unicode="&#xfc;" d="M145 348v541h144v-496q0 -132 66 -205t192 -73q122 0 198 76.5t76 207.5v490h144v-889h-142v145q-45 -78 -127 -119.5t-182 -41.5q-165 0 -267 99.5t-102 264.5zM262 1165q0 42 26.5 69.5t69.5 27.5q42 0 69.5 -27.5t27.5 -69.5q0 -43 -27 -69.5t-70 -26.5 q-44 0 -70 26.5t-26 69.5zM655 1165q0 42 27.5 69.5t69.5 27.5q43 0 69.5 -27.5t26.5 -69.5q0 -43 -26 -69.5t-70 -26.5q-43 0 -70 26.5t-27 69.5z" />
<glyph unicode="&#xfd;" horiz-adv-x="1017" d="M45 889h154l319 -651l303 651h152l-637 -1331h-152l260 536zM446 1122l285 289l107 -117l-320 -241z" />
<glyph unicode="&#xfe;" horiz-adv-x="1171" d="M158 -442v1876h143v-680q59 72 141.5 112.5t180.5 40.5q193 0 321.5 -133.5t128.5 -329.5t-128.5 -328t-321.5 -132q-98 0 -180.5 40.5t-141.5 112.5v-579h-143zM301 444q0 -143 91.5 -239t221.5 -96q138 0 225 94.5t87 240.5q0 147 -86.5 241.5t-225.5 94.5 q-131 0 -222 -96t-91 -240z" />
<glyph unicode="&#xff;" horiz-adv-x="1017" d="M45 889h154l319 -651l303 651h152l-637 -1331h-152l260 536zM225 1165q0 42 26.5 69.5t70.5 27.5q42 0 69 -27.5t27 -69.5q0 -43 -26.5 -69.5t-69.5 -26.5q-44 0 -70.5 26.5t-26.5 69.5zM618 1165q0 42 27.5 69.5t69.5 27.5q43 0 69.5 -27.5t26.5 -69.5q0 -43 -26 -69.5 t-70 -26.5q-43 0 -70 26.5t-27 69.5z" />
<glyph unicode="&#x152;" horiz-adv-x="2326" d="M135 721q0 154 55 286t152.5 226t238.5 147.5t308 53.5h1282v-140h-836v-501h787v-140h-787v-514h844v-139h-1286q-224 0 -397 93t-267 256.5t-94 371.5zM295 721q0 -261 157.5 -419.5t442.5 -158.5h287v1147h-291q-283 0 -439.5 -155.5t-156.5 -413.5z" />
<glyph unicode="&#x153;" horiz-adv-x="1832" d="M98 444q0 194 135 328.5t328 134.5q120 0 221 -57.5t162 -155.5q58 99 156 156t215 57q188 0 306 -134t118 -329q0 -28 -2 -57h-719q17 -135 101.5 -209t207.5 -74q107 0 174 43.5t82 116.5h135q-25 -123 -131.5 -201.5t-263.5 -78.5q-122 0 -222 56t-157 155 q-61 -98 -162 -154.5t-221 -56.5q-194 0 -328.5 133.5t-134.5 326.5zM246 444q0 -144 90.5 -238.5t224.5 -94.5t225 94.5t91 238.5q0 145 -91 240.5t-225 95.5t-224.5 -95.5t-90.5 -240.5zM1020 504h573q-15 131 -92.5 205.5t-187.5 74.5q-111 0 -193.5 -74.5t-99.5 -205.5z " />
<glyph unicode="&#x178;" horiz-adv-x="1372" d="M29 1434h172l483 -732l487 732h172l-581 -873v-561h-152v561zM369 1649q0 43 27.5 70.5t72.5 27.5q44 0 72 -27.5t28 -70.5q0 -44 -28 -72.5t-72 -28.5q-45 0 -72.5 28t-27.5 73zM803 1649q0 43 28 70.5t72 27.5q45 0 73 -27.5t28 -70.5q0 -45 -28 -73t-73 -28 q-44 0 -72 28.5t-28 72.5z" />
<glyph unicode="&#x2c6;" horiz-adv-x="1024" d="M186 1065l246 287h160l246 -287h-152l-174 176l-174 -176h-152z" />
<glyph unicode="&#x2dc;" horiz-adv-x="1024" d="M190 1071q20 89 66.5 141t120.5 52q45 0 137 -42t129 -42q36 0 57 18t35 57l99 -8q-20 -90 -66 -141t-121 -51q-45 0 -137 42t-129 42q-35 0 -56.5 -19t-35.5 -59z" />
<glyph unicode="&#x2000;" horiz-adv-x="974" />
<glyph unicode="&#x2001;" horiz-adv-x="1948" />
<glyph unicode="&#x2002;" horiz-adv-x="974" />
<glyph unicode="&#x2003;" horiz-adv-x="1948" />
<glyph unicode="&#x2004;" horiz-adv-x="649" />
<glyph unicode="&#x2005;" horiz-adv-x="487" />
<glyph unicode="&#x2006;" horiz-adv-x="324" />
<glyph unicode="&#x2007;" horiz-adv-x="324" />
<glyph unicode="&#x2008;" horiz-adv-x="243" />
<glyph unicode="&#x2009;" horiz-adv-x="389" />
<glyph unicode="&#x200a;" horiz-adv-x="108" />
<glyph unicode="&#x2010;" horiz-adv-x="802" d="M98 383v127h609v-127h-609z" />
<glyph unicode="&#x2011;" horiz-adv-x="802" d="M98 383v127h609v-127h-609z" />
<glyph unicode="&#x2012;" horiz-adv-x="802" d="M98 383v127h609v-127h-609z" />
<glyph unicode="&#x2013;" horiz-adv-x="962" d="M61 383v127h842v-127h-842z" />
<glyph unicode="&#x2014;" horiz-adv-x="1187" d="M33 383v127h1122v-127h-1122z" />
<glyph unicode="&#x2018;" horiz-adv-x="505" d="M135 866l158 588h127l-103 -588h-182z" />
<glyph unicode="&#x2019;" horiz-adv-x="505" d="M86 866l102 588h183l-158 -588h-127z" />
<glyph unicode="&#x201a;" horiz-adv-x="505" d="M86 -311l102 587h183l-158 -587h-127z" />
<glyph unicode="&#x201c;" horiz-adv-x="868" d="M135 866l158 588h127l-103 -588h-182zM500 866l157 588h127l-102 -588h-182z" />
<glyph unicode="&#x201d;" horiz-adv-x="868" d="M86 866l102 588h183l-158 -588h-127zM451 866l102 588h182l-157 -588h-127z" />
<glyph unicode="&#x201e;" horiz-adv-x="868" d="M86 -311l102 587h183l-158 -587h-127zM451 -311l102 587h182l-157 -587h-127z" />
<glyph unicode="&#x2022;" horiz-adv-x="825" d="M195 530q-5 91 55 158.5t151 71.5t158 -57t72 -152t-56 -159.5t-151 -72.5q-90 -3 -157.5 59t-71.5 152z" />
<glyph unicode="&#x2026;" horiz-adv-x="1728" d="M176 102q0 48 31.5 80.5t81.5 32.5q49 0 80.5 -32.5t31.5 -80.5q0 -50 -31.5 -81t-80.5 -31q-51 0 -82 31t-31 81zM752 102q0 48 31 80.5t81 32.5t81.5 -32.5t31.5 -80.5q0 -50 -31 -81t-82 -31t-81.5 31t-30.5 81zM1327 102q0 48 32 80.5t81 32.5q50 0 81 -32.5 t31 -80.5q0 -50 -30.5 -81t-81.5 -31q-50 0 -81.5 31.5t-31.5 80.5z" />
<glyph unicode="&#x202f;" horiz-adv-x="389" />
<glyph unicode="&#x2039;" horiz-adv-x="587" d="M100 471l230 369h155l-229 -369l229 -369h-155z" />
<glyph unicode="&#x203a;" horiz-adv-x="587" d="M102 102l228 369l-228 369h154l229 -369l-229 -369h-154z" />
<glyph unicode="&#x205f;" horiz-adv-x="487" />
<glyph unicode="&#x20ac;" horiz-adv-x="1331" d="M20 498v127h144q-4 58 -4 92q0 30 4 92h-144v127h170q64 230 247.5 374t428.5 144q109 0 217 -26.5t187 -73.5l-68 -127q-63 39 -152 61.5t-182 22.5q-184 0 -320.5 -102.5t-193.5 -272.5h711v-127h-741q-5 -39 -5 -92q0 -41 7 -92h563v-127h-535q58 -171 195 -273 t321 -102q93 0 184.5 22.5t153.5 61.5l68 -127q-79 -47 -188.5 -73.5t-219.5 -26.5q-245 0 -428.5 143.5t-249.5 374.5h-170z" />
<glyph unicode="&#x2122;" horiz-adv-x="1486" d="M61 1337v97h506v-97h-198v-518h-109v518h-199zM698 819v615h111l223 -385l223 385h111v-615h-102v457l-197 -338h-72l-192 328v-447h-105z" />
<glyph unicode="&#x25fc;" horiz-adv-x="890" d="M0 0v891h891v-891h-891z" />
<glyph unicode="&#xfb01;" horiz-adv-x="1198" d="M72 764v125h168v172q0 194 77 289.5t240 95.5q75 0 137 -16v-123q-55 8 -114 8q-113 0 -155 -63t-42 -214v-149h299v-125h-299v-764h-143v764h-168zM866 1184q0 43 27 69.5t70 26.5q44 0 70 -26.5t26 -69.5q0 -42 -26.5 -69.5t-69.5 -27.5q-42 0 -69.5 27.5t-27.5 69.5z M891 0v889h143v-889h-143z" />
<glyph unicode="&#xfb02;" horiz-adv-x="1198" d="M72 764v125h168v172q0 194 77 289.5t240 95.5q75 0 137 -16v-123q-55 8 -114 8q-113 0 -155 -63t-42 -214v-149h299v-125h-299v-764h-143v764h-168zM891 0v1434h143v-1434h-143z" />
</font>
</defs>
</svg>
